# xmcd
#
# Track frame offsets: 
#        150
#        20785
#        36573
#
# Disc length: 683 seconds
#
# Revision: 0
# Processed by: cddbd v1.5.2PL0 Copyright (c) Steve Scherf et al.
# Submitted via: ExactAudioCopyFreeDBPlugin 1.0
#
DISCID=2502a903
DTITLE=The Rusty Spring Syncopators - Tired Chicken Blues
DYEAR=2013
DGENRE=Blues
TTITLE0=Tired Chicken Blues
TTITLE1=Eagle Ridin' Papas
TTITLE2=Jim Lee Blues
EXTD=
EXTT0=
EXTT1=
EXTT2=
PLAYORDER=
